<?xml version="1.0" encoding="UTF-8"?>
<svg width="32px" height="32px" viewBox="0 0 32 32" version="1.1" xmlns="http://www.w3.org/2000/svg" xmlns:xlink="http://www.w3.org/1999/xlink">
    <title>MKOptin_icn_32px</title>
    <g id="MKOptin_icn_32px" stroke="none" stroke-width="1" fill="none" fill-rule="evenodd">
        <g id="Bildteil" transform="translate(16.0413, 16.0413) rotate(-50) translate(-16.0413, -16.0413)translate(0.0413, 0.0413)">
            <circle id="Oval" fill="#1068C9" cx="16" cy="16" r="16"></circle>
            <g id="Group-12" transform="translate(9.9479, 3.0637)" fill="#FFFFFF">
                <path d="M11.5502261,5.38496319 L21.143223,20.1434201 C21.6997311,20.9995863 21.4568101,22.144785 20.6006439,22.7012931 C20.300728,22.8962384 19.9507025,23 19.592997,23 L0.407003036,23 C-0.614134464,23 -1.44192996,22.1722045 -1.44192996,21.151067 C-1.44192996,20.7933615 -1.33816837,20.443336 -1.14322304,20.1434201 L8.44977393,5.38496319 C9.00628197,4.52879697 10.1514807,4.28587602 11.0076469,4.84238406 C11.2244588,4.98331176 11.4092984,5.16815135 11.5502261,5.38496319 Z" id="Triangle" fill-opacity="0.6" transform="translate(10, 13) rotate(90) translate(-10, -13)"></path>
                <g id="Group-22" transform="translate(0.6186, -9.42)">
                    <g id="Group-23" transform="translate(-0, 0)">
                        <path d="M38.8217604,5.31981733 C40.5803722,3.19488785 43.8364564,2.81392918 46.0944271,4.46892234 C48.3523978,6.12391549 48.7572093,9.18814822 46.9985975,11.3130777 C46.2532966,12.2136244 46.2532945,12.2136244 43.2720906,15.8158111 C39.5455858,20.3185444 43.8117563,15.1756873 39.3399505,20.5789673 L38.8242738,21.2020592 C34.8621823,25.9894517 34.7190846,26.1623567 31.1416399,30.4849807 C28.160436,34.0871674 28.160436,34.0871674 27.4151351,34.9877141 C25.5247109,37.2719123 21.9482569,37.5122206 19.7321677,35.5039462 C19.2308241,35.0496164 18.8378792,34.69352 18.4595826,34.3506984 L18.035235,33.9661442 C16.7986302,32.8455026 18.1288256,34.0999886 13.2407255,29.6702725 C8.35262551,25.2405565 6.89940879,23.9236139 5.66280398,22.8029723 L5.23845538,22.4184181 C4.86015887,22.0755965 4.4672136,21.7195001 3.96587001,21.2651703 C1.90430058,19.3969255 1.8424025,16.3096519 3.8276175,14.3695515 C5.8128325,12.4294512 9.0933998,12.3712008 11.1549692,14.2394455 C11.5309769,14.5801929 11.8460119,14.865684 12.139622,15.1317606 L12.4275546,15.3926933 C12.4748417,15.435546 12.5219007,15.4781913 12.5689131,15.5207951 L12.8519032,15.7772475 C14.088508,16.8978891 15.5417273,18.2148317 20.4298274,22.6445478 C22.6858735,24.6890321 21.4268124,23.4990119 22.5358841,24.5040798 L22.7731705,24.7202086 L22.9648047,24.4917203 C26.5422493,20.1690963 26.6853471,19.9961913 30.6474386,15.2087988 L31.678792,13.9626151 C35.6408835,9.17522253 31.5178114,14.1451747 35.0952561,9.82255069 C38.0764599,6.220364 38.0764594,6.220364 38.8217604,5.31981733 Z" id="Path-2" fill-opacity="0.6" fill-rule="nonzero" transform="translate(25.2354, 20.1537) rotate(-9.2) translate(-25.2354, -20.1537)"></path>
                        <path d="M10.7360305,22.4788822 C10.9591203,22.6236679 11.1460342,22.7449747 11.3202365,22.8580323 L11.4910704,22.9689043 C11.5191264,22.9871127 11.547047,23.0052329 11.57494,23.0233355 L11.7428414,23.1323037 C12.4177624,23.5703286 13.2014382,24.0789355 15.5802222,25.6227704 L10.6604711,28.6990314 C9.59778196,28.009344 9.0789376,27.6726127 8.61212056,27.3696476 L8.3603496,27.2062483 C8.13590181,27.0605813 7.90276277,26.9092737 7.6053097,26.7162262 C6.38215623,25.9223974 6.09142988,24.3303104 6.9559546,23.1602002 C7.82047932,21.9900899 9.51287705,21.6850535 10.7360305,22.4788822 Z" id="Combined-Shape"></path>
                    </g>
                </g>
            </g>
        </g>
    </g>
</svg>